Coordinates
version=1
nRows=11
nColumns=38
inDegrees=no

Units are S.I. units (second, meters, Newtons, ...)
If the header above contains a line with 'inDegrees', this indicates whether rotational values are in degrees (yes) or radians (no).

endheader
time	pelvis_tilt	pelvis_list	pelvis_rotation	pelvis_tx	pelvis_ty	pelvis_tz	hip_flexion_r	hip_adduction_r	hip_rotation_r	knee_angle_r	ankle_angle_r	subtalar_angle_r	mtp_angle_r	hip_flexion_l	hip_adduction_l	hip_rotation_l	knee_angle_l	ankle_angle_l	subtalar_angle_l	mtp_angle_l	lumbar_extension	lumbar_bending	lumbar_rotation	arm_flex_r	arm_add_r	arm_rot_r	elbow_flex_r	pro_sup_r	wrist_flex_r	wrist_dev_r	arm_flex_l	arm_add_l	arm_rot_l	elbow_flex_l	pro_sup_l	wrist_flex_l	wrist_dev_l
2.13	-0.322261	-0.0034486	0.0448476	1.01875	0.964585	-0.346549	0.263946	-0.00996197	-0.0609192	-1.84884	0.0645849	0.0915429	0.0289867	0.914719	-0.00223759	-0.388516	-0.730281	0.359732	0.0686156	-0.0460686	0.122926	-0.0348524	0.138818	-0.427186	-0.29295	-0.139123	1.79741	1.42634	0.0296385	0.0387998	-0.814059	-0.279987	-0.207302	2.01467	1.59347	0.0524674	0.043873
2.14	-0.321891	0.0084994	0.047975	1.01702	0.959377	-0.346837	0.328618	-0.0390738	-0.0634697	-1.93854	0.107459	0.0915429	0.0289867	0.902092	0.00964971	-0.374221	-0.802991	0.405882	0.0686156	-0.0460686	0.118581	-0.0481834	0.119699	-0.438715	-0.290663	-0.148302	1.73007	1.41381	0.0296385	0.0387998	-0.763497	-0.275458	-0.185695	1.98098	1.58914	0.0524674	0.043873
2.15	-0.321548	0.0222304	0.0491446	1.01476	0.95503	-0.347014	0.399748	-0.0672111	-0.0577918	-2.01555	0.148197	0.0915429	0.0289867	0.884315	0.0246825	-0.356239	-0.868212	0.461575	0.0686156	-0.0460686	0.113359	-0.0628599	0.101416	-0.451056	-0.28885	-0.157036	1.67299	1.39704	0.0296385	0.0387998	-0.709103	-0.27152	-0.163826	1.9471	1.58611	0.0524674	0.043873
2.16	-0.321078	0.0367665	0.0478178	1.01212	0.951659	-0.347055	0.476299	-0.0918888	-0.0437101	-2.07793	0.185276	0.0915429	0.0289867	0.859445	0.0416084	-0.336979	-0.920534	0.52136	0.0686156	-0.0460686	0.107544	-0.077521	0.08449	-0.465321	-0.287754	-0.165766	1.62862	1.37512	0.0296385	0.0387998	-0.652661	-0.267632	-0.143173	1.91591	1.58508	0.0524674	0.043873
2.17	-0.32038	0.0508867	0.0437075	1.0093	0.949462	-0.34693	0.556696	-0.110967	-0.0224037	-2.12397	0.217544	0.0915429	0.0289867	0.826393	0.0589039	-0.318525	-0.956666	0.579462	0.0686156	-0.0460686	0.101679	-0.0907506	0.0690632	-0.482411	-0.287614	-0.174845	1.59845	1.34854	0.0296385	0.0387998	-0.596519	-0.263141	-0.125419	1.89072	1.58627	0.0524674	0.043873
2.18	-0.319369	0.0632883	0.0368177	1.00659	0.948613	-0.346636	0.638899	-0.12287	0.00379746	-2.15228	0.244328	0.0915429	0.0289867	0.784945	0.0749649	-0.302377	-0.975434	0.630466	0.0686156	-0.0460686	0.0964555	-0.101153	0.0549879	-0.502934	-0.288603	-0.184567	1.58282	1.31924	0.0296385	0.0387998	-0.543215	-0.257421	-0.11211	1.87473	1.58937	0.0524674	0.043873
2.19	-0.318101	0.0727615	0.0273745	1.00425	0.949159	-0.346209	0.720485	-0.126692	0.0318364	-2.162	0.265421	0.0915429	0.0289867	0.735529	0.0882629	-0.289429	-0.977402	0.669645	0.0686156	-0.0460686	0.092488	-0.107412	0.0420313	-0.52723	-0.290751	-0.195238	1.581	1.29032	0.0296385	0.0387998	-0.495043	-0.250012	-0.10428	1.8704	1.5935	0.0524674	0.043873
2.2	-0.31663	0.0783005	0.0157119	1.00251	0.951058	-0.345701	0.798832	-0.122252	0.0584525	-2.15276	0.28101	0.0915429	0.0289867	0.678956	0.0975053	-0.280102	-0.964285	0.693103	0.0686156	-0.0460686	0.0902294	-0.108424	0.0300812	-0.555435	-0.293897	-0.207214	1.59132	1.26516	0.0296385	0.0387998	-0.45368	-0.240725	-0.102184	1.87907	1.59738	0.0524674	0.043873
2.21	-0.314951	0.0792424	0.0021791	1.00155	0.95425	-0.345144	0.87134	-0.110063	0.0807007	-2.12471	0.291519	0.0915429	0.0289867	0.616196	0.101787	-0.274549	-0.938354	0.697879	0.0686156	-0.0460686	0.0899092	-0.103448	0.0192468	-0.587533	-0.297695	-0.220856	1.61156	1.24655	0.0296385	0.0387998	-0.419993	-0.229678	-0.105247	1.90067	1.59963	0.0524674	0.043873
2.22	-0.313018	0.0753928	-0.0128869	1.00148	0.958662	-0.344546	0.935681	-0.0912554	0.0963539	-2.07846	0.297471	0.0915429	0.0289867	0.54826	0.100721	-0.27278	-0.901989	0.682091	0.0686156	-0.0460686	0.0915307	-0.0922538	0.00980948	-0.623356	-0.301671	-0.236394	1.6392	1.23577	0.0296385	0.0387998	-0.394072	-0.217283	-0.112259	1.93392	1.59913	0.0524674	0.043873
2.23	-0.310805	0.0670848	-0.0291314	1.00236	0.96417	-0.343903	0.990045	-0.0674791	0.104118	-2.01501	0.299432	0.0915429	0.0289867	0.476206	0.0945374	-0.274668	-0.857421	0.645076	0.0686156	-0.0460686	0.0949099	-0.0752374	0.00205718	-0.662532	-0.305326	-0.253786	1.67179	1.23219	0.0296385	0.0387998	-0.375416	-0.204172	-0.121704	1.97672	1.59529	0.0524674	0.043873
